<?xml version="1.0" encoding="utf-8"?>
<!-- Svg Vector Icons : http://www.onlinewebfonts.com/icon -->
<!DOCTYPE svg PUBLIC "-//W3C//DTD SVG 1.1//EN" "http://www.w3.org/Graphics/SVG/1.1/DTD/svg11.dtd">
<svg version="1.1" xmlns="http://www.w3.org/2000/svg" xmlns:xlink="http://www.w3.org/1999/xlink" x="0px" y="0px" viewBox="0 0 1000 1000" enable-background="new 0 0 1000 1000" xml:space="preserve">
<metadata> Svg Vector Icons : http://www.onlinewebfonts.com/icon </metadata>
<g><g transform="translate(0.000000,485.000000) scale(0.100000,-0.100000)"><path d="M4010,4476.9c-237.9-74.8-416.3-308.9-418.2-548.7c-1.9-203.4,117-399.1,307-510.3l80.6-48l-26.9-99.8c-34.5-130.5-34.5-397.1,1.9-531.4c49.9-188,161.2-381.8,308.9-531.4l134.3-138.1L4259.4,1931c-76.7-76.7-149.6-163.1-163.1-191.9l-21.1-53.7l-1249-5.8c-1229.8-7.7-1252.8-7.7-1402.5-49.9C802.2,1451.4,337.9,996.7,151.8,384.7C107.7,237,102,181.3,100-52.7c-1.9-364.5,55.6-571.7,247.5-901.7c84.4-145.8,368.4-447,510.3-543c216.8-145.8,481.6-251.3,734.8-291.6c101.7-17.3,145.8-32.6,145.8-51.8c0-15.3-107.4-640.8-239.8-1389c-132.4-748.2-239.8-1381.4-239.8-1406.3c0-138.1,63.3-165,381.8-165c230.2,0,253.3,3.8,299.3,44.1c46,38.4,82.5,172.7,395.2,1423.6c189.9,759.7,353,1414,364.5,1454.2l19.2,71H5000h2281.2l19.2-71c11.5-40.3,174.6-694.5,364.5-1454.2C7977.6-4584.4,8014-4718.7,8060.1-4757c46.1-40.3,69.1-44.1,299.3-44.1c316.6,0,381.8,26.9,381.8,163.1c0,24.9-107.4,658-239.8,1406.3c-132.4,750.2-239.8,1375.6-239.8,1390.9c0,19.2,42.2,34.5,145.8,51.8c253.2,40.3,518,145.8,734.8,291.6c140,94,425.9,399.1,512.2,544.9c184.2,310.8,247.5,542.9,245.6,899.8c-1.9,234.1-7.7,289.7-51.8,437.4c-186.1,612-652.3,1068.6-1272,1243.2c-147.7,42.2-178.4,44.1-1325.7,49.9c-1084,7.7-1176.1,9.6-1176.1,40.3c0,17.3-71,101.7-155.4,188l-157.3,157.3l134.3,132.4c287.8,289.7,408.6,686.8,322.3,1059c-17.3,67.1-26.9,124.7-24.9,124.7c3.8,1.9,30.7,15.4,59.5,30.7c103.6,51.8,203.4,155.4,260.9,272.4c142,283.9,23,602.4-289.7,767.4c-117,61.4-335.7,61.4-452.8,0c-111.3-59.5-224.5-165-276.3-257.1c-36.4-63.3-49.9-74.8-92.1-65.2c-251.3,53.7-479.6,51.8-633.1-3.8c-42.2-15.4-53.7-5.8-115.1,90.2C4503.1,4450.1,4249.8,4551.8,4010,4476.9z M4255.6,4158.5c80.6-23,149.6-97.9,149.6-163.1c0-55.6-257.1-316.6-310.8-316.6c-21.1,0-67.1,28.8-103.6,65.2c-57.6,57.6-65.2,76.7-65.2,168.8C3925.6,4118.2,4054.2,4214.1,4255.6,4158.5z M6099.3,4150.8c95.9-40.3,134.3-95.9,143.9-209.1c5.8-82.5,0-111.3-38.4-166.9c-26.8-38.4-69.1-72.9-105.5-82.5c-57.6-17.3-67.1-11.5-207.2,128.5c-120.9,120.9-143.9,155.4-132.4,189.9c17.3,59.5,65.2,111.3,132.4,140.1C5967,4183.4,6022.6,4183.4,6099.3,4150.8z M5464.3,3749.8c416.3-205.3,567.9-698.4,351.1-1139.6c-145.8-293.5-422.1-443.2-788.5-424c-213,11.5-376,78.7-521.8,214.9c-320.4,301.2-337.7,848-36.5,1176.1c172.7,188,353,259,648.5,251.3C5307,3822.7,5328.1,3818.9,5464.3,3749.8z M5086.3,1854.3c95.9,0,216.8,11.5,270.5,26.9l99.8,28.8l111.3-113.2l111.3-113.2h-592.8h-592.8l111.3,113.2l111.3,113.2l99.8-28.8C4869.5,1867.7,4992.3,1854.3,5086.3,1854.3z M8616.4,1276.8c222.5-76.7,381.8-176.5,556.4-351.1C9552.7,545.8,9675.5-6.7,9497.1-542c-128.6-383.7-452.8-709.9-844.2-849.9c-74.8-26.9-203.4-57.6-284-69.1c-207.2-28.8-6530.7-28.8-6737.9,0C658.3-1326.7,130.7-275.3,591.2,614.9c115.1,224.5,347.2,454.7,571.7,566c90.2,44.1,228.3,97.8,307,119c140,36.5,237.9,36.5,3568.5,32.6l3424.6-3.8L8616.4,1276.8z M2362-1860c-5.8-30.7-155.4-627.3-331.9-1329.5c-299.3-1195.3-322.3-1275.8-362.6-1281.6c-24.9-3.8-44.1,1.9-44.1,13.5c0,9.6,103.6,606.3,230.2,1321.8c126.6,717.5,230.2,1308.5,230.2,1316.1c0,5.8,65.2,11.5,145.8,11.5h145.8L2362-1860z M7916.2-1819.7c0-5.8,103.6-598.6,230.2-1316.1c126.6-719.5,230.2-1316.1,230.2-1325.7c0-7.7-19.2-13.4-42.2-9.6c-42.2,5.8-65.2,86.3-364.5,1281.6C7793.4-2487.4,7643.7-1890.7,7638-1860l-13.4,51.8h145.8C7850.9-1808.2,7916.2-1814,7916.2-1819.7z"/><path d="M4982.7,3627l-59.5-53.7l-1.9-308.9c-1.9-170.8,3.8-322.3,13.4-335.7c9.6-15.3,109.4-115.1,220.6-222.6c214.9-207.2,243.7-220.6,341.5-168.8c61.4,30.7,78.7,63.3,78.7,151.6c0,49.9-26.9,86.3-163.1,222.6l-163.1,163.1v243.7c0,224.5-3.8,247.5-42.2,291.6c-24.9,28.8-71,55.6-103.6,61.4C5055.6,3680.7,5032.6,3673.1,4982.7,3627z"/><path d="M1586.9,981.3c-142-38.4-337.7-143.9-454.7-247.5C1007.5,626.4,867.5,423,815.6,273.4c-51.8-143.9-69.1-402.9-38.4-552.5c74.8-353,381.8-688.8,748.2-813.5l126.6-42.2H5000h3347.9l126.6,42.2c356.9,120.9,642.7,424,736.7,780.9c143.9,541-234.1,1145.4-807.7,1295C8238.5,1025.5,1748.1,1025.5,1586.9,981.3z M8317.2,666.7c237.9-44.1,456.6-220.6,541-437.4c61.4-155.4,61.4-427.8,0-585.2c-61.4-155.4-216.8-318.5-370.3-389.5L8367-801H5000H1633l-124.7,59.5c-216.8,103.6-356.8,285.9-404.8,521.8C1024.8,190.9,1255,563.1,1652.1,659C1774.9,689.7,8161.7,697.4,8317.2,666.7z"/><path d="M3394.2,158.3c-126.6-53.7-176.5-226.4-101.7-349.2c128.5-212.9,460.4-117,460.4,132.4c0,71-65.2,172.7-136.2,211C3540,192.8,3478.6,194.7,3394.2,158.3z"/><path d="M6237.5,164C5990,27.8,6064.8-311.7,6343-311.7c69.1,0,92.1,11.5,155.4,74.8c67.1,67.1,74.8,84.4,74.8,168.8c0,113.2-48,188-145.8,228.3C6350.7,192.8,6289.3,192.8,6237.5,164z"/></g></g>
</svg>